<svg xmlns="http://www.w3.org/2000/svg" xmlns:vectornator="http://vectornator.io" xml:space="preserve" stroke-miterlimit="10" style="fill-rule:nonzero;clip-rule:evenodd;stroke-linecap:round;stroke-linejoin:round" viewBox="0 0 100 40"><path vectornator:layerName="Untitled" fill="#00eb64" d="M64.398 16.634h-2.814V29.02h2.814V16.634ZM34.19 21.769h-4.77l2.338-6.36 2.432 6.36Zm2.72 7.25h2.957L33.22 11.897h-2.783L23.855 29.02h2.925l1.765-4.77h6.55l1.813 4.77Zm9.73-7.027 5.278-5.358h-3.625l-4.85 5.056V10.894H40.66V29.02h2.783v-4.15l1.145-1.16 4.102 5.262h3.37l-5.421-6.98Zm10.986 7.314c.694.01 1.38-.143 2.004-.445v-2.544a2.91 2.91 0 0 1-1.59.509 1.304 1.304 0 0 1-1.479-1.447v-6.36h2.798v-2.385h-2.75v-3.307h-2.783v3.307H51.87v2.321h1.955v6.726a3.371 3.371 0 0 0 3.753 3.625M64.7 12.897a1.733 1.733 0 1 0-3.466-.063 1.733 1.733 0 0 0 3.466.064m8.967 12.83a2.656 2.656 0 0 1-2.528 1.256c-1.256 0-2.576-.524-2.576-1.78s1.32-1.75 2.576-1.75c1.01-.1 1.99.38 2.528 1.24v1.034Zm2.655 3.292v-8.11c0-2.813-1.844-4.546-4.96-4.546a4.77 4.77 0 0 0-4.866 3.736h2.671a2.003 2.003 0 0 1 2.115-1.336 2.13 2.13 0 0 1 2.369 2.226v1.018a5.709 5.709 0 0 0-2.894-.795c-2.734 0-4.77 1.59-4.77 3.99a4.182 4.182 0 0 0 4.627 4.04 4.992 4.992 0 0 0 3.069-.907v.684h2.64Z"/></svg>