<svg xmlns="http://www.w3.org/2000/svg" viewBox="0 0 100 40"><path fill="#006940" d="M9.97 22.51v-4.44c-.71-1.24-.03-.07-.75-1.28h3.13v4.26l3.05.01c-.76 1.4 0 .04-.8 1.45H9.97zm15.46 0v-4.4l-.78-1.33h4.44l1.65 2.66v-2.66h1.95v5.73H29.6l-2.22-3.49v3.49h-1.96zm55.44 0l-1.46-2.35v2.34l-2.33.01v-4.46c-.72-1.22-.02-.06-.75-1.27h3.08v3.11l2.83-3.11h1.65l-2.2 2.45 1.95 3.28h-2.77zm4.21-4.49c-.61-1.02-.04-.07-.75-1.23l6.58-.01c.75 1.21.02.06.77 1.27H87.5v.93h1.76v1.24H87.5v1.06h4.23l-.64 1.24h-6v-4.5zm-42.74 3.03l4.6.01c.34-.09.33-.6.02-.66-3.68.04-4.57 0-4.62-1.74-.02-1.08.83-1.82 1.5-1.88h4.45l.77 1.26h-3.75c-.25.1-.32.5-.01.6h3.13c1.8.3 1.8 3.62-.06 3.86h-5.13l-.9-1.45zm-3.37-4.23c-.86-.05-1.44-.03-5.27-.03l.77 1.27v4.46c2.72 0 3.62.02 4.48-.06 1.53-.1 2.57-1.39 2.57-2.56.01-1.5-.72-2.78-2.55-3.08zm-2.1 4.45v-3.21c1.42-.1 2.1.26 2.09 1.78-.06 1.17-.59 1.54-2.09 1.43zm30.63 1.24l-3.53-5.73H59.8c.8 1.22.05.07.81 1.26-.8 1.48-1.6 2.99-2.38 4.47h1.84l.62-1.24h3.41l-.68 1.24h4.1zm-6.03-2.62l.72-1.4.92 1.4h-1.64zm-52.1 2.63l-3.55-5.73H1.63l.78 1.25L0 22.51h1.84l.66-1.24h3.4l-.66 1.24h4.13zm-4.44-2.63H3.27c.72-1.33.05-.1.8-1.43.82 1.33.88 1.4.86 1.43zm19.77 2.63l-3.55-5.73-4.2-.01c.73 1.15.05.07.78 1.26l-2.38 4.47h1.85l.63-1.24h3.42c-.59 1.1-.09.14-.66 1.24h4.1zm-6.09-2.63c.75-1.4 0-.04.77-1.42.84 1.35.04.07.89 1.41l-1.66.01zm38.16-.35v-.04c.62-.3.87-.88.85-1.44-.05-.82-.57-1.2-1.33-1.27l-6.13-.01.77 1.27-.01 4.46h5.69c1.8-.2 1.58-2.77.16-2.97zm-3.45-1.49c1.26.03 1.81-.12 1.84.41-.03.62-.72.46-1.84.49v-.9zm0 3.23v-1.1c1.48 0 2.04-.09 2.09.57-.04.65-.62.5-2.1.53zM2.7 16.3L1.91 15H4.7l.81 1.28-2.8.01zm65.61 6.21v-4.4l-.77-1.33h4.43l1.66 2.66v-2.66h1.94v5.73H72.5l-2.23-3.49v3.49h-1.96zm24.44 0v-4.4c-.75-1.29-.04-.04-.77-1.33h4.43l1.66 2.66v-2.66H100v5.73h-3.08c-2.19-3.44-.03-.08-2.22-3.49v3.49h-1.96z"/></svg>
