<svg viewBox="0 0 100 40" fill="none" xmlns="http://www.w3.org/2000/svg">
<path d="M71.6966 3H27.7824C27.5885 3 27.427 3 27.2331 3C27.0715 3 26.9099 3 26.7807 3C26.4576 3 26.1021 3.03211 25.779 3.09632C25.4558 3.16053 25.1327 3.25685 24.8096 3.41737C24.5187 3.5458 24.2279 3.77054 24.0017 3.99528C23.7755 4.22002 23.5493 4.50897 23.4201 4.79792C23.2585 5.08687 23.1616 5.40793 23.0969 5.7611C23.0323 6.08215 23.0323 6.43532 23 6.75637C23 6.9169 23 7.07743 23 7.20586C23 7.39849 23 7.55902 23 7.75165V32.2484C23 32.441 23 32.6015 23 32.7942C23 32.9547 23 33.1152 23 33.2436C23 33.5647 23.0323 33.9179 23.0969 34.2389C23.1616 34.56 23.2585 34.881 23.4201 35.2021C23.5816 35.491 23.7755 35.78 24.0017 36.0047C24.2279 36.2295 24.5187 36.4542 24.8096 36.5826C25.1004 36.7432 25.4235 36.8395 25.779 36.9037C26.1021 36.9679 26.4576 36.9679 26.7807 37C26.9423 37 27.1038 37 27.2331 37C27.427 37 27.5885 37 27.7824 37H71.6966C71.8905 37 72.0521 37 72.2459 37C72.4075 37 72.5691 37 72.6983 37C73.0215 37 73.3769 36.9679 73.7001 36.9037C74.0232 36.8395 74.3463 36.7432 74.6695 36.5826C74.9603 36.4221 75.2511 36.2295 75.4773 36.0047C75.7035 35.78 75.9297 35.491 76.0589 35.2021C76.2205 34.9131 76.3175 34.5921 76.3821 34.2389C76.4467 33.9179 76.4467 33.5647 76.479 33.2436C76.479 33.0831 76.479 32.9226 76.479 32.7942C76.479 32.6015 76.479 32.441 76.479 32.2484V7.75165C76.479 7.55902 76.479 7.39849 76.479 7.20586C76.479 7.04533 76.479 6.8848 76.479 6.75637C76.479 6.43532 76.4467 6.08215 76.3821 5.7611C76.3175 5.44004 76.2205 5.11898 76.0589 4.79792C75.8974 4.50897 75.7035 4.22002 75.4773 3.99528C75.2511 3.77054 74.9603 3.5458 74.6695 3.41737C74.3786 3.25685 74.0555 3.16053 73.7001 3.09632C73.3769 3.03211 73.0215 3.03211 72.6983 3C72.5368 3 72.3752 3 72.2459 3C72.0521 3 71.8905 3 71.6966 3Z" fill="black"/>
<path d="M71.6966 4.12372H72.2459C72.4075 4.12372 72.5368 4.12372 72.6983 4.12372C72.9568 4.12372 73.2477 4.15582 73.5385 4.18793C73.797 4.22004 73.9909 4.28425 74.1848 4.38056C74.3786 4.47688 74.5402 4.6053 74.7018 4.76583C74.8633 4.92636 74.9926 5.08689 75.0895 5.27953C75.1865 5.47216 75.2511 5.66479 75.2834 5.92164C75.3481 6.21059 75.3481 6.49954 75.3481 6.75639C75.3481 6.88481 75.3481 7.04534 75.3481 7.20587C75.3481 7.39851 75.3481 7.55903 75.3481 7.75167V32.2484C75.3481 32.441 75.3481 32.6015 75.3481 32.7942C75.3481 32.9226 75.3481 33.0831 75.3481 33.2436C75.3481 33.5005 75.3157 33.7894 75.2834 34.0784C75.2511 34.3031 75.1865 34.5279 75.0895 34.7205C74.9926 34.9131 74.8633 35.0737 74.7018 35.2342C74.5402 35.3947 74.3786 35.5231 74.1848 35.6195C73.9909 35.7158 73.797 35.78 73.5385 35.8121C73.2477 35.8763 72.9568 35.8763 72.6983 35.8763C72.5368 35.8763 72.4075 35.8763 72.2459 35.8763C72.0521 35.8763 71.8905 35.8763 71.6966 35.8763H27.7824C27.6209 35.8763 27.427 35.8763 27.2331 35.8763C27.0715 35.8763 26.9423 35.8763 26.7807 35.8763C26.5545 35.8763 26.2314 35.8442 25.9405 35.8121C25.7143 35.78 25.4882 35.7158 25.2943 35.5874C25.1004 35.491 24.9388 35.3626 24.7773 35.2021C24.6157 35.0416 24.4864 34.881 24.3895 34.6884C24.2925 34.4958 24.2279 34.3031 24.1956 34.0463C24.131 33.7573 24.131 33.4684 24.131 33.2115C24.131 33.051 24.131 32.9226 24.131 32.7621V32.3447V32.2163V7.75167V7.62325V7.20587C24.131 7.04534 24.131 6.91692 24.131 6.75639C24.131 6.49954 24.1633 6.21059 24.1956 5.92164C24.2279 5.6969 24.2925 5.47216 24.3895 5.27953C24.4864 5.08689 24.6157 4.92636 24.7773 4.76583C24.9388 4.6053 25.1004 4.47688 25.2943 4.38056C25.4882 4.28425 25.682 4.22004 25.9405 4.18793C26.2314 4.12372 26.5222 4.12372 26.7807 4.12372C26.9423 4.12372 27.0715 4.12372 27.2331 4.12372H27.7824H71.6966Z" fill="white"/>
<path d="M37.6058 14.4296C38.0581 13.8517 38.3813 13.0812 38.2843 12.3107C37.6058 12.3428 36.7979 12.7601 36.3132 13.3059C35.8931 13.7875 35.5054 14.5902 35.6023 15.3286C36.3778 15.4249 37.121 15.0076 37.6058 14.4296Z" fill="black"/>
<path d="M38.2843 15.5213C37.1857 15.4571 36.2486 16.1313 35.7316 16.1313C35.2145 16.1313 34.4067 15.5534 33.5342 15.5534C32.4033 15.5855 31.3692 16.1955 30.7876 17.2229C29.6243 19.2455 30.4644 22.2314 31.6277 23.8688C32.1771 24.6714 32.8557 25.5704 33.7281 25.5383C34.5683 25.5062 34.8914 24.9925 35.8931 24.9925C36.8949 24.9925 37.1857 25.5383 38.0905 25.5062C38.9952 25.4741 39.5769 24.7035 40.1262 23.8688C40.7725 22.9377 41.031 22.0387 41.031 22.0066C40.9987 21.9745 39.2537 21.3324 39.2537 19.3419C39.2214 17.6724 40.6109 16.8697 40.6755 16.8376C39.9323 15.6818 38.7044 15.5534 38.2843 15.5213Z" fill="black"/>
<path d="M47.7846 13.2417C50.1758 13.2417 51.8238 14.8791 51.8238 17.2228C51.8238 19.5986 50.1435 21.236 47.72 21.236H45.1025V25.3777H43.196V13.2417H47.7846ZM45.1025 19.6629H47.2676C48.9156 19.6629 49.8526 18.7639 49.8526 17.2549C49.8526 15.7138 48.9156 14.847 47.2676 14.847H45.0702V19.6629H45.1025Z" fill="black"/>
<path d="M52.3084 22.9055C52.3084 21.3645 53.504 20.4013 55.6367 20.2729L58.0926 20.1444V19.4702C58.0926 18.4749 57.414 17.897 56.3153 17.897C55.249 17.897 54.6027 18.4107 54.4411 19.1813H52.6962C52.7931 17.576 54.1826 16.3881 56.38 16.3881C58.545 16.3881 59.9345 17.5118 59.9345 19.3097V25.4098H58.1895V23.965H58.1572C57.6402 24.9603 56.5092 25.5703 55.3459 25.5703C53.5364 25.5703 52.3084 24.4787 52.3084 22.9055ZM58.0926 22.1029V21.3966L55.8953 21.525C54.7966 21.5892 54.1826 22.0708 54.1826 22.8413C54.1826 23.6119 54.8289 24.1256 55.7983 24.1256C57.0909 24.1256 58.0926 23.2587 58.0926 22.1029Z" fill="black"/>
<path d="M61.5501 28.6846V27.2078C61.6794 27.2399 62.0025 27.2399 62.1318 27.2399C62.9719 27.2399 63.4243 26.8867 63.7151 25.9877C63.7151 25.9556 63.8767 25.4419 63.8767 25.4419L60.6454 16.5807H62.6165L64.8784 23.8045H64.9108L67.1727 16.5807H69.1115L65.7832 25.9235C65.0077 28.0746 64.1352 28.7488 62.2933 28.7488C62.1641 28.7167 61.7117 28.7167 61.5501 28.6846Z" fill="black"/>
</svg>
