<svg viewBox="0 0 100 40" fill="none" xmlns="http://www.w3.org/2000/svg">
<path d="M64.935 3H35.0054C25.6524 3 18 10.65 18 20C18 29.35 25.6524 37 35.0054 37H64.935C74.288 37 81.9405 29.35 81.9405 20C81.9405 10.65 74.288 3 64.935 3Z" fill="white"/>
<path d="M64.935 4.377C67.0352 4.377 69.0758 4.7935 70.9975 5.6095C72.8596 6.4 74.5261 7.5305 75.9715 8.967C77.4085 10.4035 78.5394 12.078 79.3301 13.9395C80.1464 15.8605 80.563 17.9005 80.563 20C80.563 22.0995 80.1464 24.1395 79.3301 26.0605C78.5394 27.922 77.4085 29.588 75.9715 31.033C74.5346 32.4695 72.8596 33.6 70.9975 34.3905C69.0758 35.2065 67.0352 35.623 64.935 35.623H35.0054C32.9053 35.623 30.8646 35.2065 28.943 34.3905C27.0809 33.6 25.4144 32.4695 23.9689 31.033C22.5319 29.5965 21.4011 27.922 20.6103 26.0605C19.7941 24.1395 19.3774 22.0995 19.3774 20C19.3774 17.9005 19.7941 15.8605 20.6103 13.9395C21.4011 12.078 22.5319 10.412 23.9689 8.967C25.4059 7.5305 27.0809 6.4 28.943 5.6095C30.8646 4.7935 32.9053 4.377 35.0054 4.377H64.935ZM64.935 3H35.0054C25.6524 3 18 10.65 18 20C18 29.35 25.6524 37 35.0054 37H64.935C74.288 37 81.9405 29.35 81.9405 20C81.9405 10.65 74.288 3 64.935 3Z" fill="#3C4043"/>
<path d="M48.4907 21.2069V26.3494H46.8582V13.6504H51.1861C52.283 13.6504 53.2183 14.0159 53.9835 14.7469C54.7657 15.4779 55.1569 16.3704 55.1569 17.4244C55.1569 18.5039 54.7657 19.3964 53.9835 20.1189C53.2268 20.8414 52.2915 21.1984 51.1861 21.1984H48.4907V21.2069ZM48.4907 15.2144V19.6429H51.2201C51.8663 19.6429 52.4105 19.4219 52.8356 18.9884C53.2693 18.5549 53.4903 18.0279 53.4903 17.4329C53.4903 16.8464 53.2693 16.3279 52.8356 15.8944C52.4105 15.4439 51.8748 15.2229 51.2201 15.2229H48.4907V15.2144ZM59.4252 17.3734C60.6326 17.3734 61.5849 17.6964 62.2821 18.3424C62.9794 18.9884 63.328 19.8724 63.328 20.9944V26.3494H61.772V25.1424H61.704C61.0323 26.1369 60.131 26.6299 59.0086 26.6299C58.0478 26.6299 57.2485 26.3494 56.6023 25.7799C55.9561 25.2104 55.633 24.5049 55.633 23.6549C55.633 22.7539 55.9731 22.0399 56.6533 21.5129C57.3336 20.9774 58.2434 20.7139 59.3742 20.7139C60.3435 20.7139 61.1428 20.8924 61.7635 21.2494V20.8754C61.7635 20.3059 61.5424 19.8299 61.0918 19.4304C60.6411 19.0309 60.114 18.8354 59.5103 18.8354C58.6005 18.8354 57.8777 19.2179 57.3506 19.9914L55.9136 19.0904C56.7044 17.9429 57.8777 17.3734 59.4252 17.3734ZM57.3166 23.6804C57.3166 24.1054 57.4951 24.4624 57.8607 24.7429C58.2178 25.0234 58.643 25.1679 59.1276 25.1679C59.8164 25.1679 60.4286 24.9129 60.9642 24.4029C61.7677 23.6379 61.772 23.2979 61.772 22.6094C61.2618 22.2099 60.5561 22.0059 59.6463 22.0059C58.9831 22.0059 58.4304 22.1674 57.9883 22.4819C57.5376 22.8134 57.3166 23.2129 57.3166 23.6804ZM72.2048 17.6539L66.7631 30.1659H65.0795L67.1032 25.7884L63.515 17.6539H65.2921L67.8769 23.8929H67.911L70.4278 17.6539H72.2048Z" fill="#3C4043"/>
<path d="M41.9972 20.17C41.9972 19.6379 41.9496 19.1288 41.8611 18.6392H35.0182V21.4442L38.9592 21.445C38.7993 22.3783 38.2849 23.1739 37.4967 23.7043V25.5242H39.8426C41.2124 24.2568 41.9972 22.3834 41.9972 20.17Z" fill="#4285F4"/>
<path d="M37.4976 23.7043C36.8446 24.1446 36.0036 24.4021 35.0199 24.4021C33.1195 24.4021 31.5074 23.122 30.9301 21.3965H28.5102V23.2733C29.7091 25.6516 32.1732 27.2836 35.0199 27.2836C36.9874 27.2836 38.6403 26.6368 39.8435 25.5233L37.4976 23.7043Z" fill="#34A853"/>
<path d="M30.7022 20.0043C30.7022 19.5198 30.783 19.0514 30.9301 18.6111V16.7343H28.5102C28.0145 17.7178 27.7356 18.8279 27.7356 20.0043C27.7356 21.1807 28.0154 22.2908 28.5102 23.2742L30.9301 21.3974C30.7795 20.9483 30.7026 20.4779 30.7022 20.0043Z" fill="#FABB05"/>
<path d="M35.0199 15.6055C36.0938 15.6055 37.0554 15.9752 37.8147 16.6977L39.8936 14.6212C38.631 13.4456 36.9849 12.724 35.0199 12.724C32.174 12.724 29.7091 14.356 28.5102 16.7343L30.9301 18.6111C31.5074 16.8856 33.1195 15.6055 35.0199 15.6055Z" fill="#E94235"/>
</svg>
