<svg xmlns="http://www.w3.org/2000/svg" xmlns:vectornator="http://vectornator.io" xml:space="preserve" stroke-miterlimit="10" style="fill-rule:nonzero;clip-rule:evenodd;stroke-linecap:round;stroke-linejoin:round" viewBox="0 0 100 40"><clipPath id="a"><path d="M0 0h100v40H0z"/></clipPath><g vectornator:layerName="Untitled" clip-path="url(#a)"><path fill="#ff5f00" d="M43.898 8.827h12.497v22.459H43.898V8.826Z"/><path fill="#eb001b" d="M44.692 20.056a14.258 14.258 0 0 1 5.455-11.229c-5.856-4.603-14.266-3.933-19.32 1.54-5.053 5.471-5.053 13.908 0 19.38 5.054 5.471 13.464 6.141 19.32 1.538a14.258 14.258 0 0 1-5.455-11.229Z"/><path fill="#f79e1b" d="M73.255 20.056a14.282 14.282 0 0 1-23.108 11.23 14.285 14.285 0 0 0 0-22.459 14.282 14.282 0 0 1 23.108 11.23ZM71.893 28.907v-.46h.185v-.094h-.472v.094h.185v.46h.102Zm.916 0v-.555h-.144l-.167.382-.166-.382h-.145v.555h.102v-.418l.156.36h.106l.156-.361v.419h.102Z"/></g></svg>