<?xml version="1.0" encoding="UTF-8"?>
<svg width="100px" height="40px" viewBox="0 0 100 40" version="1.1" xmlns="http://www.w3.org/2000/svg" xmlns:xlink="http://www.w3.org/1999/xlink">
    <title>nordea-b2b</title>
    <g id="nordea-b2b" stroke="none" stroke-width="1" fill="none" fill-rule="evenodd">
        <g id="Group" transform="translate(13.000000, 7.000000)" fill="#164193">
            <path d="M68.429353,3.36089949 C65.3936413,3.58602415 62.9659341,6.1059733 62.7456244,9.18800763 C62.5238849,12.8292239 65.3392815,15.8546145 68.8728375,15.8546145 C70.1417712,15.8546145 71.8527542,15.1821451 72.6252734,13.8372036 L72.6252734,15.6861349 L74.9971909,15.6861349 L74.9971909,9.74718957 C75.1073458,5.82565652 71.9614792,3.08058271 68.4307883,3.35944786 L68.429353,3.36089949 Z M72.4550286,9.8038333 C72.3448738,11.8764364 70.5795256,13.4450496 68.482283,13.1647314 C66.877864,12.9367437 65.6167724,11.6564104 65.3922115,10.027505 C65.170472,7.84161307 66.8270897,5.9941347 68.9243377,5.9941347 C70.7998407,5.9941347 72.3448738,7.5061042 72.4550286,9.41167792 L72.4550286,9.8038333 Z M55.4038429,3.36089949 C52.1492512,3.47273531 49.3896497,5.9941361 49.3896497,9.69199747 C49.3896497,13.0528956 52.0934616,15.9112582 55.5697928,15.9112582 C57.9989297,15.9112582 60.3708473,14.4544808 61.3093164,12.0449159 L58.9359691,11.3172544 C58.4953497,12.3252341 57.4452959,13.1661858 56.286517,13.3898575 C54.6313236,13.7253677 53.0862906,12.6592899 52.4782915,11.5409261 L61.6955761,8.9643332 C61.3636817,6.49957615 59.3222287,3.25051389 55.4038484,3.36234973 L55.4038429,3.36089949 Z M51.9833068,9.35503557 C51.9833068,8.06673913 52.755826,6.55477103 54.4110139,5.93749237 C56.286517,5.20837786 57.9417049,6.16261703 58.6598643,7.50610558 L51.9833068,9.35503557 Z M35.0966357,5.88230025 L35.0966357,3.30570738 C32.7790834,3.36235111 32.0065642,4.48216798 31.6203045,5.15463738 L31.6203045,3.75305209 L28.9708552,3.75305209 L28.9708552,15.6861322 L31.6746698,15.6861322 L31.6746698,9.8038333 C31.7304649,7.05875948 33.2754979,5.9941361 35.098071,5.88230025 L35.0966357,5.88230025 Z M10.8152504,10.8699083 L2.75960424,1.28974667 L0,1.28974667 L0,15.6861322 L2.81396813,15.6861322 L2.81396813,6.04932681 L10.9812003,15.6861322 L13.519065,15.6861322 L13.519065,1.28829643 L10.8152531,1.28829643 L10.8152531,10.8684567 L10.8152504,10.8699083 Z M47.7358917,0 L45.1980242,0 L45.1980242,4.70583965 C44.5914549,3.92153304 42.714522,3.24906226 41.1136939,3.41754322 C38.0794174,3.64266789 35.6517048,6.16261703 35.4299653,9.24465136 C35.2082258,12.8858676 38.0236224,15.9112582 41.5557486,15.9112582 C42.8790421,15.9112582 44.7016152,15.2954326 45.3081845,14.1175189 L45.3081845,15.6861322 L47.6815319,15.6861322 L47.6815319,0 L47.7358917,0 L47.7358917,0 Z M45.1422292,9.8038333 C45.0320743,11.877888 43.2652963,13.4465012 41.1694835,13.1661858 C39.5650591,12.9382008 38.3039674,11.6578648 38.079412,10.0289594 C37.8576725,7.84306747 39.5142902,5.99413748 41.6101029,5.99413748 C43.4884656,5.99413748 45.0335041,7.50755859 45.1422292,9.41313369 L45.1422292,9.8038333 Z M21.2471061,3.36089122 C19.607215,3.35819708 18.0337223,4.01838447 16.8741412,5.19565954 C15.7145629,6.37293462 15.0642972,7.97043898 15.0669524,9.63535374 C15.0639179,11.300522 15.7140144,12.8984003 16.8736364,14.0759898 C18.0332557,15.2535793 19.6069667,15.9139676 21.2471061,15.9112718 C22.8872456,15.9143526 24.4611067,15.2543356 25.6209934,14.0770176 C26.7808828,12.8996996 27.4313449,11.3019764 27.4286872,9.63680814 C27.4313422,7.97189199 26.7810765,6.37438762 25.6214982,5.19711393 C24.4619198,4.01983887 22.8884271,3.35965148 21.248536,3.36235526 L21.2471061,3.36089122 Z M21.2471061,13.2228295 C19.3158108,13.2228295 17.7164125,11.5975726 17.7164125,9.63680536 C17.7164125,7.67603815 19.3158108,6.05078121 21.2471061,6.05078121 C23.1784015,6.05078121 24.7792296,7.67603815 24.7792296,9.63680536 C24.7792296,11.5975726 23.2341939,13.2228295 21.2471061,13.2228295 Z" id="Fill-2"></path>
            <path d="M31.7942308,27 C33.4701923,27 34.0759615,26.1190935 34.0759615,25.0863067 L34.0759615,24.8027965 C34.0759615,24.1851495 33.7326923,23.4662488 32.9451923,23.2029894 C33.5610577,22.9194793 33.8134615,22.3625844 33.8134615,21.7449373 L33.8134615,21.4715526 C33.8134615,20.5703954 33.2379808,19.6186114 31.5317308,19.6186114 L29.6639423,19.6186114 C29.2096154,19.6186114 28.8461538,19.9932498 28.8461538,20.4387657 L28.8461538,26.1798457 C28.8461538,26.635487 29.2096154,27 29.6639423,27 L31.7942308,27 Z M31.35,22.6055931 L30.4817308,22.6055931 L30.4817308,21.1374156 L31.5014423,21.1374156 C31.9153846,21.1374156 32.1778846,21.3601736 32.1778846,21.7246866 L32.1778846,21.9676953 C32.1778846,22.4435873 31.7639423,22.6055931 31.35,22.6055931 Z M31.7639423,25.5014465 L30.4817308,25.5014465 L30.4817308,24.0433944 L31.7235577,24.0433944 C32.1980769,24.0433944 32.4504808,24.3269045 32.4504808,24.6711668 L32.4504808,24.8635487 C32.4504808,25.207811 32.2182692,25.5014465 31.7639423,25.5014465 Z M39.0028846,27 C39.4269231,27 39.7802885,26.6557377 39.7802885,26.2203472 C39.7802885,25.795082 39.4370192,25.4406943 39.0028846,25.4406943 L36.8221154,25.4406943 C37.4581731,24.1243973 39.7802885,23.8206365 39.7802885,21.765188 C39.7802885,20.783028 39.1543269,19.5274831 37.4278846,19.5274831 C36.6201923,19.5274831 35.8932692,19.7502411 35.3278846,20.1856316 C35.0956731,20.3577628 35.0350962,20.5703954 35.0350962,20.783028 C35.0350962,21.2285439 35.4086538,21.5525554 35.8024038,21.5525554 C36.0951923,21.5525554 36.2668269,21.3905497 36.5192308,21.2386692 C36.73125,21.1171649 36.9735577,21.0159113 37.3673077,21.0159113 C37.9427885,21.0159113 38.1447115,21.4209257 38.1447115,21.765188 C38.1447115,22.5853423 37.0947115,23.0004822 36.2163462,23.7700096 C35.5399038,24.3572806 35.0350962,25.0356798 35.0350962,26.2203472 C35.0350962,26.6759884 35.3480769,27 35.8125,27 L39.0028846,27 Z M43.9802885,27 C45.65625,27 46.2620192,26.1190935 46.2620192,25.0863067 L46.2620192,24.8027965 C46.2620192,24.1851495 45.91875,23.4662488 45.13125,23.2029894 C45.7471154,22.9194793 45.9995192,22.3625844 45.9995192,21.7449373 L45.9995192,21.4715526 C45.9995192,20.5703954 45.4240385,19.6186114 43.7177885,19.6186114 L41.85,19.6186114 C41.3956731,19.6186114 41.0322115,19.9932498 41.0322115,20.4387657 L41.0322115,26.1798457 C41.0322115,26.635487 41.3956731,27 41.85,27 L43.9802885,27 Z M43.5360577,22.6055931 L42.6677885,22.6055931 L42.6677885,21.1374156 L43.6875,21.1374156 C44.1014423,21.1374156 44.3639423,21.3601736 44.3639423,21.7246866 L44.3639423,21.9676953 C44.3639423,22.4435873 43.95,22.6055931 43.5360577,22.6055931 Z M43.95,25.5014465 L42.6677885,25.5014465 L42.6677885,24.0433944 L43.9096154,24.0433944 C44.3841346,24.0433944 44.6365385,24.3269045 44.6365385,24.6711668 L44.6365385,24.8635487 C44.6365385,25.207811 44.4043269,25.5014465 43.95,25.5014465 Z" id="B2B" fill-rule="nonzero"></path>
        </g>
    </g>
</svg>