<svg xmlns="http://www.w3.org/2000/svg" xmlns:vectornator="http://vectornator.io" xml:space="preserve" stroke-miterlimit="10" style="fill-rule:nonzero;clip-rule:evenodd;stroke-linecap:round;stroke-linejoin:round" viewBox="0 0 100 40"><path vectornator:layerName="Untitled" fill="#41d87e" d="M31.195 11.617c5.238 0 8.154 2.45 8.154 6.825 0 4.373-2.916 6.808-8.154 6.808h-1.603v3.54h-5.927V11.618h7.529Zm0 8.747c1.361 0 2.145-.689 2.145-1.922 0-1.234-.784-1.922-2.145-1.922h-1.603v3.844h1.603Zm27.89-.16a8.827 8.827 0 0 1-9.42 8.971 8.827 8.827 0 0 1-9.42-8.97 8.827 8.827 0 0 1 9.42-8.973 8.827 8.827 0 0 1 9.42 8.971Zm-6.008 0a3.412 3.412 0 1 0-3.411 3.428 3.365 3.365 0 0 0 3.412-3.428Zm15.189-8.587c5.238 0 8.17 2.45 8.17 6.825 0 4.373-2.932 6.808-8.17 6.808h-1.603v3.54h-5.911V11.618h7.513Zm0 8.747c1.377 0 2.146-.689 2.146-1.922 0-1.234-.77-1.922-2.147-1.922h-1.603v3.844h1.604Z"/></svg>