<svg xmlns="http://www.w3.org/2000/svg" xml:space="preserve" stroke-miterlimit="10" style="fill-rule:nonzero;clip-rule:evenodd;stroke-linecap:round;stroke-linejoin:round" viewBox="0 0 100 40"><g fill="#01abce"><path d="M51.804 20.981a10.518 10.518 0 0 0-2.137 6.203h-.097a10.809 10.809 0 0 0-2.04-6.203h-3.885a7.757 7.757 0 0 1 0 12.489h11.933a7.757 7.757 0 0 1 0-12.489h-3.774Z"/><path d="M42.202 13.224v.195h-.209a7.368 7.368 0 0 0-6.938 7.368 7.66 7.66 0 0 0 9.894 7.271v-.971a5.314 5.314 0 0 0-.486-2.512 4.274 4.274 0 0 1-4.842-.777 5.065 5.065 0 0 1-1.166-3.011 4.163 4.163 0 0 1 4.274-4.26c.8-.02 1.593.147 2.317.486l1.388.471-.486-1.387a5.357 5.357 0 0 1-.486-2.429 4.218 4.218 0 1 1 8.437 0 7.921 7.921 0 0 1-.388 2.429l-.583 1.387 1.388-.569a7.922 7.922 0 0 1 2.428-.388c2.299 0 4.163 1.864 4.163 4.163a4.163 4.163 0 0 1-4.163 4.274 3.843 3.843 0 0 1-1.846-.389 5.91 5.91 0 0 0-.485 3.483l2.33.291a7.66 7.66 0 0 0 7.563-7.562 7.451 7.451 0 0 0-6.938-7.465h-.097v-.098a7.535 7.535 0 1 0-15.07-.138v.138Z"/></g></svg>