<svg xmlns="http://www.w3.org/2000/svg" xml:space="preserve" stroke-miterlimit="10" style="fill-rule:nonzero;clip-rule:evenodd;stroke-linecap:round;stroke-linejoin:round" viewBox="0 0 100 40"><path fill="#00b262" d="M35.81 11.241a3.972 3.972 0 0 1 3.04 1.207 4.676 4.676 0 0 1 1.107 3.268v4.575a5.027 5.027 0 0 1-1.106 3.444 3.922 3.922 0 0 1-3.142 1.282h-1.886v3.62H30.28V11.24h5.53Zm.376 10.055a1.76 1.76 0 0 0 .327-1.156v-4.072c0-.98-.402-1.483-1.207-1.483h-1.483v7.24h1.508a1.03 1.03 0 0 0 .855-.478v-.05Zm12.016-10.055 3.544 17.396h-3.544l-.628-3.545h-3.696l-.553 3.545h-3.494l3.595-17.42 4.776.024Zm-2.514 3.595-1.257 7.19h2.514l-1.257-7.19Zm10.76-3.595 3.343 10.256V11.241h3.343v17.396h-3.47l-3.569-10.608v10.608h-3.343V11.24h3.695Zm11.764 0v10.055l.251-.754 3.193-9.376h3.57l-3.118 8.949 3.268 8.522h-3.57l-2.187-5.782-1.407 3.268v2.514h-3.394V11.24h3.394Zm11.588 0v10.055l.252-.754 3.167-9.376h3.57l-3.118 8.949 3.268 8.522h-3.57l-2.186-5.782-1.383 3.268v2.514h-3.418V11.24H79.8Zm11.84 0v17.396h-3.67V11.24h3.67ZM14.77 9.86a10.206 10.206 0 0 1 7.415-2.916h2.062V5.007h-2.061A11.865 11.865 0 0 0 9.916 17.3v5.028c.025.192.025.386 0 .578a1.66 1.66 0 0 1-.477.93 1.609 1.609 0 0 1-.704.428l-.654.15h-1.86v6.034h1.785a8.22 8.22 0 0 0 5.957-2.238 7.894 7.894 0 0 0 2.263-5.605v-5.305a5.882 5.882 0 0 1 5.983-6.058h.276v2.313c-.485.03-.966.115-1.433.251a3.67 3.67 0 0 0-1.458.88 3.595 3.595 0 0 0-1.03 2.514v5.404a10.206 10.206 0 0 1-2.942 7.542 10.055 10.055 0 0 1-7.39 2.916H6.172v1.935h2.061c3.273.08 6.44-1.172 8.773-3.469a12.066 12.066 0 0 0 3.47-8.924v-5.027a3.78 3.78 0 0 1 0-.553 1.81 1.81 0 0 1 .527-.955c.202-.19.442-.337.704-.428l.653-.15h1.886V9.33h-1.81a8.17 8.17 0 0 0-5.933 2.238 7.818 7.818 0 0 0-2.262 5.731v5.305a6.083 6.083 0 0 1-1.71 4.348 6.059 6.059 0 0 1-4.323 1.685h-.302v-2.363c.486-.026.967-.11 1.433-.252a3.294 3.294 0 0 0 1.458-.83 3.62 3.62 0 0 0 1.056-2.513v-5.38a10.055 10.055 0 0 1 2.916-7.44Z"/></svg>