<svg xmlns="http://www.w3.org/2000/svg" xmlns:vectornator="http://vectornator.io" xml:space="preserve" stroke-miterlimit="10" style="fill-rule:nonzero;clip-rule:evenodd;stroke-linecap:round;stroke-linejoin:round" viewBox="0 0 100 40"><path vectornator:layerName="Untitled" fill="#1434cb" d="m43.508 11.524-7.1 16.941h-4.633l-3.494-13.52c-.212-.832-.397-1.137-1.042-1.488-1.053-.571-2.793-1.107-4.323-1.44l.104-.493h7.457c.95 0 1.805.633 2.02 1.728l1.846 9.802 4.56-11.53h4.605Zm18.15 11.41c.02-4.471-6.182-4.717-6.14-6.715.014-.608.593-1.254 1.86-1.419.627-.082 2.358-.145 4.32.758l.77-3.592c-1.055-.383-2.412-.751-4.1-.751-4.331 0-7.38 2.303-7.405 5.6-.028 2.438 2.176 3.8 3.836 4.61 1.708.83 2.281 1.363 2.275 2.105-.012 1.137-1.363 1.638-2.624 1.658-2.203.034-3.481-.596-4.5-1.07l-.794 3.712c1.023.47 2.913.88 4.873.9 4.604 0 7.615-2.274 7.63-5.796m11.438 5.531h4.053l-3.538-16.94h-3.741c-.841 0-1.55.49-1.865 1.242L61.43 28.465h4.602l.913-2.53h5.623l.529 2.53Zm-4.89-6.002 2.307-6.361 1.327 6.36h-3.634ZM49.769 11.524l-3.623 16.941h-4.383l3.626-16.94h4.38Z"/></svg>